{"glyphs":{":":{"x_min":0,"x_max":272,"ha":272,"o":"m 71 82 l 111 123 q 118 129 125 129 q 131 129 140 122 l 179 80 q 185 72 185 65 q 185 58 178 50 l 139 7 q 129 -2 125 -2 q 117 -2 111 4 l 68 54 q 63 60 63 66 q 63 74 71 82 z m 71 420 l 111 461 q 118 468 125 468 q 131 468 140 460 l 179 418 q 185 410 185 404 q 185 396 178 389 l 139 346 q 129 336 125 336 q 117 336 111 343 l 68 392 q 63 398 63 405 q 63 412 71 420 z"},"$":{"x_min":0,"x_max":495,"ha":495,"o":"m 282 758 l 282 708 q 315 704 351 691 q 355 688 360 688 q 372 688 380 710 l 404 710 l 455 572 l 431 572 q 401 638 349 660 q 312 674 282 679 l 282 415 q 399 370 439 326 q 479 282 479 197 q 479 101 421 50 q 362 0 282 -8 l 282 -125 l 246 -125 l 246 -9 q 154 -8 116 9 q 111 12 107 12 q 95 12 87 -10 l 62 -10 l 62 152 l 86 152 q 111 62 161 42 q 211 21 246 21 l 246 331 q 142 363 100 405 q 55 450 55 527 q 55 608 116 659 q 167 702 246 709 l 246 758 z m 282 320 l 282 22 q 343 30 385 69 q 427 107 427 176 q 427 232 394 265 q 363 294 282 320 z m 246 426 l 246 680 q 188 678 149 645 q 107 609 107 556 q 107 508 134 481 q 159 455 246 426 z"},"?":{"x_min":0,"x_max":365,"ha":365,"o":"m 64 649 q 127 700 183 700 q 247 700 286 667 q 325 634 325 578 q 325 544 309 510 q 293 475 249 419 q 205 364 179 327 q 154 291 154 258 q 154 227 171 166 l 148 166 q 124 233 124 269 q 124 322 181 421 q 238 520 238 572 q 238 612 215 635 q 192 658 151 658 q 110 658 64 618 z m 109 82 l 149 123 q 156 129 163 129 q 169 129 178 122 l 217 80 q 223 72 223 65 q 223 58 216 50 l 177 7 q 167 -2 163 -2 q 155 -2 149 4 l 106 54 q 101 60 101 66 q 101 74 109 82 z"},"<":{"x_min":0,"x_max":495,"ha":495,"o":"m 453 524 l 147 349 l 453 176 l 453 94 l 42 329 l 42 370 l 453 606 z"},"'":{"x_min":0,"x_max":169,"ha":169,"o":"m 96 541 l 82 541 l 51 716 q 49 728 49 732 q 49 750 59 760 q 69 770 88 770 q 107 770 118 760 q 128 751 128 733 q 128 729 126 716 z"},"=":{"x_min":0,"x_max":495,"ha":495,"o":"m 42 308 l 453 308 l 453 240 l 42 240 z m 42 460 l 453 460 l 453 392 l 42 392 z"},"a":{"x_min":0,"x_max":895,"ha":895,"o":"m 0 -1 l 692 700 l 846 700 l 846 0 l 694 -1 l 694 492 l 195 -1 z"},"L":{"x_min":0,"x_max":863,"ha":863,"o":"m 138 343 q 138 250 222 180 q 280 138 342 138 l 812 138 q 814 137 814 135 l 814 2 q 814 0 812 0 l 336 0 q 226 0 118 86 q 64 140 44 178 q 0 263 0 340 l 0 698 q 0 700 2 700 l 138 700 z"},"3":{"x_min":0,"x_max":495,"ha":495,"o":"m 212 11 q 286 11 319 68 q 352 125 352 205 q 352 255 330 305 q 308 354 244 377 l 244 387 q 283 409 314 446 q 345 482 345 548 q 345 602 318 640 q 291 679 237 686 q 204 686 177 664 q 149 642 149 609 l 129 609 l 129 687 q 129 697 165 703 q 201 710 241 710 q 316 710 366 669 q 416 628 416 547 q 416 505 386 466 q 356 428 292 398 q 337 392 387 333 q 437 274 437 197 q 437 117 367 53 q 296 -11 208 -11 q 134 -11 87 8 q 41 27 41 51 l 41 100 l 64 100 q 64 60 106 35 q 148 11 212 11 z"},";":{"x_min":0,"x_max":272,"ha":272,"o":"m 71 419 l 111 460 q 118 467 125 467 q 131 467 140 459 l 179 417 q 185 410 185 403 q 185 396 178 388 l 139 345 q 129 335 125 335 q 117 335 111 342 l 68 392 q 63 398 63 404 q 63 412 71 419 z m 116 126 q 138 126 159 94 q 181 62 181 20 q 181 -33 146 -91 q 112 -148 79 -148 l 79 -127 q 114 -106 121 -34 q 121 24 58 44 l 58 65 z"},"J":{"x_min":0,"x_max":863,"ha":863,"o":"m 812 700 q 814 700 814 698 l 814 333 q 814 228 730 121 q 682 70 646 49 q 557 0 476 0 l 2 0 q 0 0 0 2 l 0 135 q 0 138 2 138 l 473 138 q 570 138 642 230 q 678 283 678 368 l 678 698 q 679 700 681 700 z"},"V":{"x_min":0,"x_max":895,"ha":895,"o":"m 151 700 q 155 700 207 589 q 237 531 422 153 l 424 153 q 659 632 694 700 l 844 700 l 846 699 l 500 0 l 347 0 q 345 1 169 355 q 133 431 0 699 l 2 700 z"},"\"":{"x_min":0,"x_max":328,"ha":328,"o":"m 96 541 l 82 541 l 51 716 q 49 728 49 732 q 49 750 59 760 q 69 770 88 770 q 107 770 118 760 q 128 751 128 733 q 128 729 126 716 z m 249 541 l 234 541 l 204 716 q 202 728 202 732 q 202 750 212 760 q 222 770 241 770 q 260 770 270 760 q 281 751 281 733 q 281 729 279 716 z"},"7":{"x_min":0,"x_max":495,"ha":495,"o":"m 360 642 l 165 642 q 100 642 71 587 l 47 587 l 97 700 l 448 700 l 448 676 q 267 253 267 87 q 267 24 300 24 l 357 24 l 357 0 l 156 0 l 156 24 l 189 24 q 224 24 224 88 q 233 233 360 642 z"},"S":{"x_min":0,"x_max":867,"ha":867,"o":"m 816 700 q 818 700 818 698 l 818 565 q 818 562 816 562 l 187 562 q 139 562 138 491 q 138 418 189 418 l 596 418 q 684 417 724 391 q 764 366 791 315 q 818 264 818 209 l 818 201 q 818 139 796 97 q 774 56 730 28 q 686 0 599 0 l 5 0 q 2 0 2 2 l 2 135 q 3 138 5 138 l 621 138 q 680 138 681 206 q 681 280 625 280 l 203 281 q 115 281 62 331 q 0 392 0 462 l 0 478 q 0 610 93 675 q 140 700 184 700 z"},"}":{"x_min":0,"x_max":495,"ha":495,"o":"m 378 312 q 294 309 269 277 q 244 245 244 212 l 244 -16 q 244 -52 206 -85 q 169 -118 116 -118 l 63 -118 l 63 -94 l 107 -94 q 137 -94 160 -77 q 182 -61 183 -33 l 182 211 q 182 252 212 289 q 242 325 282 326 l 282 327 q 242 327 212 364 q 183 401 183 441 l 183 686 q 182 714 160 730 q 137 747 107 747 l 63 747 l 63 771 l 116 771 q 169 771 207 738 q 244 705 244 669 l 244 440 q 244 408 269 375 q 294 343 378 341 z"},"Z":{"x_min":0,"x_max":867,"ha":867,"o":"m 820 700 l 820 478 l 138 138 l 813 138 q 815 138 816 135 l 816 2 q 816 0 813 0 q 133 0 0 0 l 0 222 l 680 562 l 2 562 q 0 562 0 565 l 0 698 q 0 700 2 700 z"},"x":{"x_min":0,"x_max":865,"ha":865,"o":"m 187 700 l 405 457 l 625 700 l 811 700 l 811 698 l 500 351 q 508 340 811 2 l 811 0 l 625 0 l 405 244 l 187 0 l 0 0 l 0 1 l 311 350 l 311 351 q 21 674 0 699 l 0 700 z"},")":{"x_min":0,"x_max":370,"ha":370,"o":"m 67 -181 l 28 -181 q 112 -62 141 33 q 168 127 168 288 l 168 299 q 168 460 141 554 q 112 650 28 768 l 67 768 q 151 676 198 552 q 246 429 247 293 q 246 158 198 35 q 151 -88 67 -181 z"},"&":{"x_min":0,"x_max":822,"ha":822,"o":"m 513 96 l 243 429 q 185 429 155 387 q 125 345 125 288 q 125 243 142 199 q 160 155 192 119 q 227 78 272 57 q 318 35 367 35 q 410 35 450 52 q 489 68 513 96 z m 681 0 q 653 0 613 12 q 572 24 531 77 q 499 41 446 16 q 393 -8 328 -8 q 216 -8 145 66 q 74 139 74 254 q 74 333 111 384 q 148 436 221 458 q 201 488 191 515 q 181 542 181 569 q 181 620 218 665 q 256 710 307 710 q 340 710 376 691 q 381 688 385 688 q 396 688 404 710 l 426 710 l 473 573 l 451 573 q 424 638 375 660 q 333 678 306 678 q 274 678 254 656 q 234 633 234 598 q 234 534 284 468 l 543 141 q 591 212 603 260 q 611 298 611 323 q 611 371 581 371 l 537 371 l 537 395 l 753 395 l 753 371 l 709 371 q 663 371 638 260 q 623 195 562 117 q 616 51 684 51 l 691 51 q 761 59 785 113 l 809 113 l 759 0 z"},"_":{"x_min":0,"x_max":500,"ha":500,"o":"m 0 -49 l 500 -49 l 500 -78 l 0 -78 z"},"v":{"x_min":0,"x_max":895,"ha":895,"o":"m 151 700 q 155 700 207 589 q 237 531 422 153 l 424 153 q 659 632 694 700 l 844 700 l 846 699 l 500 0 l 347 0 q 345 1 169 355 q 133 431 0 699 l 2 700 z"},"O":{"x_min":0,"x_max":963,"ha":963,"o":"m 572 138 q 669 138 739 228 q 778 286 778 350 q 778 470 664 540 q 616 562 570 562 l 343 562 q 241 562 169 464 q 138 410 138 357 l 138 343 q 138 250 222 180 q 279 138 345 138 z m 576 700 q 686 700 789 620 q 848 566 860 538 q 915 451 915 367 l 915 333 q 915 220 821 109 q 708 0 576 0 l 336 0 q 226 0 118 86 q 64 140 44 178 q 0 263 0 340 l 0 360 q 0 493 107 603 q 215 700 340 700 z"},"(":{"x_min":0,"x_max":370,"ha":370,"o":"m 123 293 q 124 429 172 552 q 219 676 303 768 l 342 768 q 258 650 229 554 q 202 460 202 299 l 202 288 q 202 127 229 33 q 258 -62 342 -181 l 303 -181 q 219 -88 172 35 q 124 158 123 293 z"},"C":{"x_min":0,"x_max":863,"ha":863,"o":"m 812 700 q 814 700 814 698 l 814 565 q 814 562 812 562 l 343 562 q 241 562 169 464 q 138 410 138 357 l 138 343 q 138 250 222 180 q 280 138 342 138 l 812 138 q 814 137 814 135 l 814 2 q 814 0 812 0 l 338 0 q 219 0 112 93 q 54 151 35 195 q 0 271 0 340 l 0 360 q 0 493 107 603 q 215 700 340 700 z"},"W":{"x_min":0,"x_max":940,"ha":940,"o":"m 2 0 q 0 0 0 2 l 0 698 q 0 700 2 700 l 135 700 q 138 700 138 698 l 139 216 l 371 404 l 512 405 l 754 219 l 754 698 q 754 700 756 700 l 889 700 q 892 700 892 698 l 892 2 q 892 0 889 0 l 755 0 l 443 261 l 135 0 z"},"A":{"x_min":0,"x_max":895,"ha":895,"o":"m 500 700 q 501 700 846 1 l 844 0 l 692 0 l 629 118 l 218 119 l 152 0 l 2 0 l 0 1 l 346 700 z m 422 545 l 278 250 l 573 249 z"},"f":{"x_min":0,"x_max":863,"ha":863,"o":"m 812 700 q 814 700 814 698 l 814 565 q 814 562 812 562 l 343 562 q 241 562 169 464 q 138 410 138 357 l 138 2 q 138 0 135 0 l 2 0 q 0 0 0 2 l 0 360 q 0 493 107 603 q 215 700 340 700 z m 811 421 q 814 420 814 418 l 814 286 q 814 283 811 283 l 89 283 q 86 283 86 286 l 86 418 q 86 421 89 421 z"},"Q":{"x_min":0,"x_max":963,"ha":963,"o":"m 572 138 l 571 299 l 778 298 l 778 350 q 778 470 664 540 q 616 562 570 562 l 343 562 q 241 562 169 464 q 138 410 138 357 l 138 343 q 138 250 222 180 q 279 138 345 138 z m 576 700 q 686 700 789 620 q 848 566 860 538 q 915 451 915 367 l 915 333 q 915 220 821 109 q 708 0 576 0 l 336 0 q 226 0 118 86 q 64 140 44 178 q 0 263 0 340 l 0 360 q 0 493 107 603 q 215 700 340 700 z"},"w":{"x_min":0,"x_max":940,"ha":940,"o":"m 2 0 q 0 0 0 2 l 0 698 q 0 700 2 700 l 135 700 q 138 700 138 698 l 139 216 l 371 404 l 512 405 l 754 219 l 754 698 q 754 700 756 700 l 889 700 q 892 700 892 698 l 892 2 q 892 0 889 0 l 755 0 l 443 261 l 135 0 z"},"-":{"x_min":0,"x_max":327,"ha":327,"o":"m 76 200 q 57 200 57 213 l 57 254 q 57 268 77 268 l 250 268 q 271 268 271 254 l 271 213 q 271 200 251 200 z"},"E":{"x_min":0,"x_max":863,"ha":863,"o":"m 812 700 q 814 700 814 698 l 814 565 q 814 562 812 562 l 343 562 q 241 562 169 464 q 138 410 138 357 l 138 343 q 138 250 222 180 q 280 138 342 138 l 812 138 q 814 137 814 135 l 814 2 q 814 0 812 0 l 338 0 q 219 0 112 93 q 54 151 35 195 q 0 271 0 340 l 0 360 q 0 493 107 603 q 215 700 340 700 z m 814 419 l 814 285 l 122 285 l 122 419 z"},"s":{"x_min":0,"x_max":867,"ha":867,"o":"m 816 700 q 818 700 818 698 l 818 565 q 818 562 816 562 l 187 562 q 139 562 138 491 q 138 418 189 418 l 596 418 q 684 417 724 391 q 764 366 791 315 q 818 264 818 209 l 818 201 q 818 139 796 97 q 774 56 730 28 q 686 0 599 0 l 5 0 q 2 0 2 2 l 2 135 q 3 138 5 138 l 621 138 q 680 138 681 206 q 681 280 625 280 l 203 281 q 115 281 62 331 q 0 392 0 462 l 0 478 q 0 610 93 675 q 140 700 184 700 z"},">":{"x_min":0,"x_max":495,"ha":495,"o":"m 42 606 l 453 370 l 453 329 l 42 94 l 42 176 l 348 349 l 42 524 z"},"l":{"x_min":0,"x_max":863,"ha":863,"o":"m 138 343 q 138 250 222 180 q 280 138 342 138 l 812 138 q 814 137 814 135 l 814 2 q 814 0 812 0 l 336 0 q 226 0 118 86 q 64 140 44 178 q 0 263 0 340 l 0 698 q 0 700 2 700 l 138 700 z"},"8":{"x_min":0,"x_max":495,"ha":495,"o":"m 270 405 q 329 417 346 466 q 359 502 359 534 q 359 544 357 553 q 352 593 332 628 q 312 664 283 682 q 256 698 231 698 l 227 698 q 199 697 176 676 q 152 655 142 618 q 136 594 136 569 q 136 555 138 541 q 144 502 163 467 q 182 432 270 405 z m 230 383 q 175 373 142 307 q 115 250 115 206 q 115 197 116 189 q 123 138 146 93 q 169 48 204 24 q 235 3 266 3 l 272 3 q 307 5 335 32 q 363 60 375 107 q 382 137 382 169 q 382 187 379 205 q 374 259 344 308 q 313 357 230 383 z m 311 396 q 331 389 351 379 q 401 352 429 302 q 458 251 458 197 q 458 142 430 93 q 402 43 352 15 q 302 -12 248 -12 q 193 -12 143 15 q 93 43 65 93 q 38 142 38 197 q 38 251 66 302 q 94 352 144 379 q 164 389 184 396 q 172 400 161 406 q 119 428 96 466 q 73 505 73 547 q 73 590 96 629 q 120 668 161 689 q 203 710 248 710 q 292 710 333 689 q 375 668 399 629 q 422 590 422 547 q 422 505 399 466 q 376 428 335 406 q 323 400 311 396 z"},"\\":{"x_min":0,"x_max":278,"ha":278,"o":""},"e":{"x_min":0,"x_max":863,"ha":863,"o":"m 812 700 q 814 700 814 698 l 814 565 q 814 562 812 562 l 343 562 q 241 562 169 464 q 138 410 138 357 l 138 343 q 138 250 222 180 q 280 138 342 138 l 812 138 q 814 137 814 135 l 814 2 q 814 0 812 0 l 338 0 q 219 0 112 93 q 54 151 35 195 q 0 271 0 340 l 0 360 q 0 493 107 603 q 215 700 340 700 z m 814 419 l 814 285 l 122 285 l 122 419 z"},"b":{"x_min":0,"x_max":863,"ha":863,"o":"m 586 700 q 684 700 724 676 q 763 652 789 613 q 814 573 812 494 q 814 378 761 339 q 816 300 814 189 q 816 124 795 83 q 773 43 728 21 q 683 0 585 -2 l 2 0 q 0 0 0 2 l 0 698 q 0 700 2 700 z m 138 138 l 593 138 q 674 138 674 208 q 674 279 592 281 l 139 281 q 136 281 136 284 l 136 417 q 137 419 139 419 l 595 419 q 671 419 672 490 q 672 562 595 562 l 138 562 z"},"%":{"x_min":0,"x_max":786,"ha":786,"o":"m 219 712 q 267 712 312 688 q 357 665 383 620 q 408 576 408 527 q 408 479 384 435 q 359 392 314 367 q 269 342 219 342 q 170 342 125 367 q 80 392 55 435 q 30 479 30 527 q 30 576 56 620 q 81 665 126 688 q 171 712 219 712 z m 101 521 q 107 476 128 436 q 148 396 180 375 q 208 355 235 355 q 239 355 242 356 q 272 357 298 382 q 323 406 333 448 q 340 475 340 502 q 340 518 338 534 q 332 580 311 620 q 289 660 258 681 q 230 699 202 699 l 197 699 q 167 698 142 674 q 116 650 106 608 q 99 580 99 551 q 99 536 101 521 z m 145 -14 l 604 699 l 645 699 l 187 -14 z m 567 360 q 614 360 660 336 q 705 312 730 268 q 756 224 756 175 q 756 126 731 83 q 707 39 661 15 q 616 -10 567 -10 q 518 -10 473 15 q 428 39 403 83 q 378 126 378 175 q 378 224 403 268 q 429 312 474 336 q 519 360 567 360 z m 448 168 q 455 123 475 83 q 496 43 527 22 q 556 3 584 3 l 589 3 q 620 5 646 29 q 671 54 681 96 q 688 122 688 150 q 688 166 686 182 q 680 227 658 267 q 637 308 606 328 q 578 347 550 347 l 544 347 q 515 345 489 321 q 464 297 454 255 q 446 227 446 198 q 446 183 448 168 z"},"m":{"x_min":0,"x_max":940,"ha":940,"o":"m 135 700 q 142 696 203 583 q 216 562 445 152 l 446 152 q 704 612 755 700 l 889 700 q 892 700 892 698 l 892 2 q 892 0 889 0 l 756 0 q 754 0 754 2 l 754 418 l 752 418 q 749 408 519 1 l 516 0 l 375 0 q 354 32 261 201 q 259 203 139 417 l 138 417 l 138 2 q 138 0 135 0 l 2 0 q 0 0 0 2 l 0 698 q 0 700 2 700 z"},"#":{"x_min":0,"x_max":652,"ha":652,"o":"m 291 419 l 250 278 l 368 278 l 410 419 z m 329 700 l 374 700 l 305 467 l 423 467 l 493 700 l 538 700 l 469 467 l 595 467 l 581 420 l 455 420 l 414 278 l 550 278 l 536 230 l 399 230 l 331 0 l 286 0 l 354 230 l 236 230 l 167 0 l 122 0 l 190 230 l 57 230 l 72 278 l 204 278 l 246 420 l 102 420 l 116 467 l 260 467 z"},",":{"x_min":0,"x_max":272,"ha":272,"o":"m 116 126 q 138 126 159 94 q 181 62 181 20 q 181 -33 146 -91 q 112 -148 79 -148 l 79 -127 q 114 -106 121 -34 q 121 24 58 44 l 58 65 z"},"n":{"x_min":0,"x_max":863,"ha":863,"o":"m 139 700 q 654 211 678 190 l 678 698 q 679 700 681 700 l 812 700 q 814 700 814 698 l 814 2 q 814 0 812 0 l 678 0 l 138 511 l 138 2 q 138 0 135 0 l 2 0 q 0 0 0 2 l 0 698 q 0 700 2 700 z"},"h":{"x_min":0,"x_max":863,"ha":863,"o":"m 135 700 q 138 700 138 698 l 138 418 l 678 418 l 678 698 q 679 700 681 700 l 812 700 q 814 700 814 698 l 814 2 q 814 0 812 0 l 681 0 q 678 0 678 2 l 678 281 l 138 281 l 138 2 q 138 0 135 0 l 2 0 q 0 0 0 2 l 0 698 q 0 700 2 700 z"},"z":{"x_min":0,"x_max":867,"ha":867,"o":"m 820 700 l 820 478 l 138 138 l 813 138 q 815 138 816 135 l 816 2 q 816 0 813 0 q 133 0 0 0 l 0 222 l 680 562 l 2 562 q 0 562 0 565 l 0 698 q 0 700 2 700 z"},"B":{"x_min":0,"x_max":863,"ha":863,"o":"m 586 700 q 684 700 724 676 q 763 652 789 613 q 814 573 812 494 q 814 378 761 339 q 816 300 814 189 q 816 124 795 83 q 773 43 728 21 q 683 0 585 -2 l 2 0 q 0 0 0 2 l 0 698 q 0 700 2 700 z m 138 138 l 593 138 q 674 138 674 208 q 674 279 592 281 l 139 281 q 136 281 136 284 l 136 417 q 137 419 139 419 l 595 419 q 671 419 672 490 q 672 562 595 562 l 138 562 z"},"K":{"x_min":0,"x_max":855,"ha":855,"o":"m 812 699 l 368 366 l 812 -1 l 590 0 l 138 366 l 138 366 l 590 699 z m 135 700 q 138 700 138 698 l 138 3 q 138 0 135 0 l 2 0 q 0 0 0 3 l 0 698 q 0 700 2 700 z"},"R":{"x_min":0,"x_max":863,"ha":863,"o":"m 634 700 q 709 700 773 631 q 814 573 814 523 l 814 423 q 814 347 740 283 q 688 244 615 244 l 811 -2 l 638 -1 l 438 244 l 124 244 q 124 244 124 246 l 124 379 q 124 381 126 381 l 616 381 q 657 381 672 411 q 678 424 678 510 q 678 547 638 562 q 633 562 628 562 l 138 562 l 138 2 q 138 0 135 0 l 2 0 q 0 0 0 2 l 0 698 q 0 700 2 700 z"},"T":{"x_min":0,"x_max":863,"ha":863,"o":"m 812 700 q 814 700 814 698 l 814 565 q 814 562 812 562 l 476 562 l 476 2 q 476 0 474 0 l 341 0 q 338 0 338 2 l 338 562 l 2 562 q 0 562 0 565 l 0 698 q 0 700 2 700 z"},"P":{"x_min":0,"x_max":863,"ha":863,"o":"m 634 700 q 709 700 773 631 q 814 573 814 523 l 814 423 q 814 347 740 283 q 688 244 615 244 l 137 244 q 134 244 134 246 l 134 379 q 135 381 137 381 l 616 381 q 657 381 672 411 q 678 424 678 510 q 678 547 638 562 q 633 562 628 562 l 138 562 l 138 2 q 138 0 135 0 l 2 0 q 0 0 0 2 l 0 698 q 0 700 2 700 z"},"|":{"x_min":0,"x_max":495,"ha":495,"o":"m 208 770 l 287 770 l 287 -204 l 208 -204 z"},"t":{"x_min":0,"x_max":863,"ha":863,"o":"m 812 700 q 814 700 814 698 l 814 565 q 814 562 812 562 l 476 562 l 476 2 q 476 0 474 0 l 341 0 q 338 0 338 2 l 338 562 l 2 562 q 0 562 0 565 l 0 698 q 0 700 2 700 z"},"M":{"x_min":0,"x_max":940,"ha":940,"o":"m 135 700 q 142 696 203 583 q 216 562 445 152 l 446 152 q 704 612 755 700 l 889 700 q 892 700 892 698 l 892 2 q 892 0 889 0 l 756 0 q 754 0 754 2 l 754 418 l 752 418 q 749 408 519 1 l 516 0 l 375 0 q 354 32 261 201 q 259 203 139 417 l 138 417 l 138 2 q 138 0 135 0 l 2 0 q 0 0 0 2 l 0 698 q 0 700 2 700 z"},"g":{"x_min":0,"x_max":858,"ha":858,"o":"m 812 700 q 814 700 814 698 l 814 565 q 814 562 812 562 l 343 562 q 241 562 169 464 q 138 409 138 357 l 138 343 q 138 250 222 180 q 279 138 345 138 l 678 138 l 678 341 q 679 344 681 344 l 812 344 q 814 343 814 341 l 814 2 q 814 0 812 0 l 338 0 q 219 0 112 93 q 54 151 35 195 q 0 271 0 340 l 0 360 q 0 493 107 603 q 215 700 340 700 z"},"j":{"x_min":0,"x_max":863,"ha":863,"o":"m 812 700 q 814 700 814 698 l 814 333 q 814 228 730 121 q 682 70 646 49 q 557 0 476 0 l 2 0 q 0 0 0 2 l 0 135 q 0 138 2 138 l 473 138 q 570 138 642 230 q 678 283 678 368 l 678 698 q 679 700 681 700 z"},"i":{"x_min":0,"x_max":185,"ha":185,"o":"m 134 700 q 136 700 136 698 l 136 2 q 136 0 134 0 l 2 0 q 0 0 0 2 l 0 698 q 0 700 2 700 z"},"y":{"x_min":0,"x_max":860,"ha":860,"o":"m 187 700 l 405 457 l 625 700 l 811 700 l 811 698 l 475 321 l 475 2 q 475 0 473 0 l 340 0 q 337 0 337 2 l 337 319 q 305 357 0 699 l 0 700 z"},"@":{"x_min":0,"x_max":986,"ha":986,"o":"m 475 304 q 434 299 401 265 q 368 230 368 167 q 368 115 399 73 q 430 30 488 30 q 536 33 550 112 l 550 344 q 523 313 475 304 z m 664 14 q 633 15 615 23 q 597 31 585 49 q 571 31 545 18 q 519 4 480 4 q 410 4 355 53 q 300 103 300 167 q 300 210 326 249 q 351 288 390 305 q 430 322 475 329 q 508 337 529 350 q 550 363 550 386 q 549 420 530 447 q 511 475 467 475 q 432 475 407 446 q 383 417 383 385 l 361 385 l 361 462 q 361 472 396 482 q 432 492 483 492 q 536 491 577 460 q 619 430 619 383 l 619 96 q 619 39 665 39 q 755 56 795 132 q 835 208 835 319 q 825 482 722 583 q 625 674 487 674 q 387 674 296 607 q 204 540 164 434 q 131 347 131 257 q 131 104 195 8 q 258 -89 344 -134 q 429 -179 499 -179 q 633 -179 780 -78 l 780 -114 q 651 -204 501 -204 q 384 -204 276 -144 q 168 -84 108 23 q 49 130 49 248 q 49 366 109 475 q 170 583 278 642 q 386 700 501 700 q 678 700 798 588 q 919 476 919 312 q 919 180 833 97 q 748 15 664 14 z"},".":{"x_min":0,"x_max":272,"ha":272,"o":"m 71 82 l 111 123 q 118 129 125 129 q 131 129 140 122 l 179 80 q 185 72 185 65 q 185 58 178 50 l 139 7 q 129 -2 125 -2 q 117 -2 111 4 l 68 54 q 63 60 63 66 q 63 74 71 82 z"},"p":{"x_min":0,"x_max":863,"ha":863,"o":"m 634 700 q 709 700 773 631 q 814 573 814 523 l 814 423 q 814 347 740 283 q 688 244 615 244 l 137 244 q 134 244 134 246 l 134 379 q 135 381 137 381 l 616 381 q 657 381 672 411 q 678 424 678 510 q 678 547 638 562 q 633 562 628 562 l 138 562 l 138 2 q 138 0 135 0 l 2 0 q 0 0 0 2 l 0 698 q 0 700 2 700 z"},"X":{"x_min":0,"x_max":865,"ha":865,"o":"m 187 700 l 405 457 l 625 700 l 811 700 l 811 698 l 500 351 q 508 340 811 2 l 811 0 l 625 0 l 405 244 l 187 0 l 0 0 l 0 1 l 311 350 l 311 351 q 21 674 0 699 l 0 700 z"},"*":{"x_min":0,"x_max":500,"ha":500,"o":"m 243 632 q 241 667 225 695 q 207 728 207 736 q 207 752 219 761 q 230 771 249 771 q 267 771 279 762 q 291 753 291 739 q 291 729 273 696 q 257 666 255 632 q 288 645 311 669 q 335 696 344 699 q 350 700 354 700 q 363 700 372 695 q 384 687 390 669 q 393 660 393 652 q 393 645 391 638 q 386 624 373 620 q 370 619 363 619 q 351 619 326 623 q 312 625 299 625 q 279 625 260 620 q 281 593 311 580 q 344 564 350 557 q 356 548 356 538 q 356 534 355 530 q 351 515 336 504 q 322 493 307 493 q 307 493 307 494 q 292 494 283 505 q 277 513 272 551 q 268 583 250 612 q 231 583 227 551 q 223 515 217 507 q 208 495 193 494 l 191 494 q 177 494 163 504 q 148 515 144 529 q 142 534 142 539 q 142 547 147 555 q 154 563 188 580 q 218 594 239 620 q 219 625 200 625 q 187 625 174 623 q 148 617 136 617 q 132 617 129 618 q 115 623 109 637 q 106 643 106 651 q 106 659 109 668 q 115 686 127 694 q 135 700 144 700 q 148 700 152 699 q 162 696 188 668 q 211 645 243 632 z"},"Y":{"x_min":0,"x_max":860,"ha":860,"o":"m 187 700 l 405 457 l 625 700 l 811 700 l 811 698 l 475 321 l 475 2 q 475 0 473 0 l 340 0 q 337 0 337 2 l 337 319 q 305 357 0 699 l 0 700 z"},"c":{"x_min":0,"x_max":863,"ha":863,"o":"m 812 700 q 814 700 814 698 l 814 565 q 814 562 812 562 l 343 562 q 241 562 169 464 q 138 410 138 357 l 138 343 q 138 250 222 180 q 280 138 342 138 l 812 138 q 814 137 814 135 l 814 2 q 814 0 812 0 l 338 0 q 219 0 112 93 q 54 151 35 195 q 0 271 0 340 l 0 360 q 0 493 107 603 q 215 700 340 700 z"},"!":{"x_min":0,"x_max":328,"ha":328,"o":"m 153 160 l 129 666 q 129 688 139 700 q 149 711 169 711 q 190 711 200 700 q 210 688 210 666 l 171 160 z m 109 82 l 149 123 q 156 129 163 129 q 169 129 178 122 l 217 80 q 223 72 223 65 q 223 58 216 50 l 177 7 q 167 -2 163 -2 q 155 -2 149 4 l 106 54 q 101 60 101 66 q 101 74 109 82 z"},"/":{"x_min":0,"x_max":278,"ha":278,"o":"m 45 -24 l 6 -24 l 271 700 l 310 700 z"},"[":{"x_min":0,"x_max":370,"ha":370,"o":""},"6":{"x_min":0,"x_max":495,"ha":495,"o":"m 272 5 q 322 5 352 53 q 382 102 382 174 q 382 273 333 337 q 285 401 228 401 q 184 401 148 351 q 113 302 113 229 q 113 154 160 80 q 207 5 272 5 z m 391 712 l 391 689 q 305 683 232 601 q 159 520 118 373 q 165 418 248 418 q 300 418 351 391 q 401 363 429 311 q 458 260 458 203 q 458 146 430 95 q 402 44 360 16 q 317 -12 277 -12 q 158 -12 98 67 q 38 146 38 249 q 38 405 140 559 q 242 712 391 712 z"},"r":{"x_min":0,"x_max":863,"ha":863,"o":"m 634 700 q 709 700 773 631 q 814 573 814 523 l 814 423 q 814 347 740 283 q 688 244 615 244 l 811 -2 l 638 -1 l 438 244 l 124 244 q 124 244 124 246 l 124 379 q 124 381 126 381 l 616 381 q 657 381 672 411 q 678 424 678 510 q 678 547 638 562 q 633 562 628 562 l 138 562 l 138 2 q 138 0 135 0 l 2 0 q 0 0 0 2 l 0 698 q 0 700 2 700 z"},"2":{"x_min":0,"x_max":495,"ha":495,"o":"m 353 506 q 353 578 311 625 q 269 673 220 673 q 137 673 85 609 l 75 609 l 75 633 q 94 657 131 684 q 168 710 221 710 q 311 710 371 651 q 431 592 431 506 q 431 378 125 59 l 331 59 q 395 59 433 113 l 457 113 l 407 0 l 56 0 l 56 24 q 353 354 353 506 z"},"{":{"x_min":0,"x_max":495,"ha":495,"o":"m 117 341 q 201 343 226 375 q 251 408 251 440 l 251 669 q 251 705 289 738 q 326 771 379 771 l 432 771 l 432 747 l 388 747 q 358 747 335 730 q 313 714 312 686 l 312 441 q 312 401 283 364 q 253 327 213 327 l 213 326 q 253 325 283 289 q 313 252 313 211 l 312 -33 q 313 -61 335 -77 q 358 -94 388 -94 l 432 -94 l 432 -118 l 379 -118 q 326 -118 289 -85 q 251 -52 251 -16 l 251 212 q 251 245 226 277 q 201 309 117 312 z"},"9":{"x_min":0,"x_max":495,"ha":495,"o":"m 223 695 q 173 695 143 647 q 113 599 113 526 q 113 427 162 363 q 211 299 267 299 q 312 299 347 349 q 382 398 382 471 q 382 546 335 620 q 289 695 223 695 z m 104 -12 l 104 11 q 190 17 263 99 q 336 181 377 327 q 331 282 248 282 q 195 282 145 310 q 94 337 66 389 q 38 440 38 497 q 38 554 65 605 q 93 656 135 684 q 178 712 218 712 q 337 712 397 633 q 458 554 458 451 q 458 295 355 141 q 253 -12 104 -12 z"}," ":{"x_min":0,"x_max":248,"ha":248,"o":""},"I":{"x_min":0,"x_max":185,"ha":185,"o":"m 134 700 q 136 700 136 698 l 136 2 q 136 0 134 0 l 2 0 q 0 0 0 2 l 0 698 q 0 700 2 700 z"},"H":{"x_min":0,"x_max":863,"ha":863,"o":"m 135 700 q 138 700 138 698 l 138 418 l 678 418 l 678 698 q 679 700 681 700 l 812 700 q 814 700 814 698 l 814 2 q 814 0 812 0 l 681 0 q 678 0 678 2 l 678 281 l 138 281 l 138 2 q 138 0 135 0 l 2 0 q 0 0 0 2 l 0 698 q 0 700 2 700 z"},"4":{"x_min":0,"x_max":495,"ha":495,"o":"m 293 214 l 293 549 l 86 214 z m 360 165 l 360 82 q 360 24 395 24 l 432 24 l 432 0 l 216 0 l 216 24 l 253 24 q 293 24 293 83 l 293 165 l 21 165 l 21 182 l 343 700 l 360 700 l 360 214 l 369 214 q 434 214 463 278 l 487 278 l 437 165 z"},"~":{"x_min":0,"x_max":495,"ha":495,"o":"m 451 429 l 451 353 q 420 317 391 305 q 362 292 334 292 q 305 292 248 316 q 190 340 162 340 q 137 340 109 326 q 82 312 46 271 l 46 348 q 77 383 106 396 q 135 409 162 409 q 193 409 250 385 q 308 360 334 360 q 360 360 387 374 q 415 388 451 429 z"},"D":{"x_min":0,"x_max":863,"ha":863,"o":"m 476 700 q 609 700 723 588 q 814 479 814 364 l 814 333 q 814 228 730 121 q 682 70 646 49 q 557 0 476 0 l 2 0 q 0 0 0 2 l 0 576 q 0 578 2 578 l 135 578 q 138 578 138 576 l 138 138 l 473 138 q 572 138 643 232 q 678 289 678 351 q 678 462 576 532 q 523 562 473 562 l 2 562 q 0 562 0 565 l 0 698 q 0 700 2 700 z"},"^":{"x_min":0,"x_max":495,"ha":495,"o":""},"0":{"x_min":0,"x_max":495,"ha":495,"o":"m 248 712 q 300 712 351 666 q 401 619 429 532 q 458 445 458 350 q 458 255 430 169 q 402 83 352 36 q 302 -12 248 -12 q 193 -12 143 36 q 93 83 65 169 q 38 255 38 350 q 38 445 66 532 q 94 619 144 666 q 194 712 248 712 z m 116 336 q 123 249 146 170 q 169 92 204 51 q 235 13 267 13 q 270 13 272 14 q 307 17 335 65 q 363 112 375 194 q 382 247 382 302 q 382 332 379 363 q 373 452 349 531 q 325 610 291 650 q 259 687 228 687 q 225 687 223 687 q 189 683 161 636 q 133 590 121 507 q 113 454 113 397 q 113 367 116 336 z"},"F":{"x_min":0,"x_max":863,"ha":863,"o":"m 812 700 q 814 700 814 698 l 814 565 q 814 562 812 562 l 343 562 q 241 562 169 464 q 138 410 138 357 l 138 2 q 138 0 135 0 l 2 0 q 0 0 0 2 l 0 360 q 0 493 107 603 q 215 700 340 700 z m 811 430 q 814 429 814 427 l 814 294 q 814 292 811 292 l 89 292 q 86 292 86 294 l 86 427 q 86 430 89 430 z"},"`":{"x_min":0,"x_max":500,"ha":500,"o":"m 329 527 l 295 527 l 134 625 q 119 635 111 645 q 104 655 104 666 q 104 681 114 690 q 124 700 140 700 q 149 700 159 694 q 169 688 187 671 z"},"k":{"x_min":0,"x_max":855,"ha":855,"o":"m 804 696 l 364 366 l 803 2 l 584 2 l 136 366 l 136 366 l 584 696 z m 134 698 q 136 697 136 695 l 136 6 q 136 3 134 3 l 2 3 q 0 3 0 6 l 0 695 q 0 698 2 698 z"},"u":{"x_min":0,"x_max":863,"ha":863,"o":"m 135 700 q 138 700 138 698 l 138 343 q 138 250 222 180 q 280 138 342 138 l 473 138 q 570 138 641 229 q 678 282 678 364 l 678 698 q 679 700 681 700 l 812 700 q 814 700 814 698 l 814 333 q 814 228 730 121 q 682 70 646 49 q 557 0 476 0 l 336 0 q 226 0 118 86 q 64 140 44 178 q 0 263 0 340 l 0 698 q 0 700 2 700 z"},"]":{"x_min":0,"x_max":370,"ha":370,"o":""},"U":{"x_min":0,"x_max":863,"ha":863,"o":"m 135 700 q 138 700 138 698 l 138 343 q 138 250 222 180 q 280 138 342 138 l 473 138 q 570 138 641 229 q 678 282 678 364 l 678 698 q 679 700 681 700 l 812 700 q 814 700 814 698 l 814 333 q 814 228 730 121 q 682 70 646 49 q 557 0 476 0 l 336 0 q 226 0 118 86 q 64 140 44 178 q 0 263 0 340 l 0 698 q 0 700 2 700 z"},"o":{"x_min":0,"x_max":963,"ha":963,"o":"m 572 138 q 669 138 739 228 q 778 286 778 350 q 778 470 664 540 q 616 562 570 562 l 343 562 q 241 562 169 464 q 138 410 138 357 l 138 343 q 138 250 222 180 q 279 138 345 138 z m 576 700 q 686 700 789 620 q 848 566 860 538 q 915 451 915 367 l 915 333 q 915 220 821 109 q 708 0 576 0 l 336 0 q 226 0 118 86 q 64 140 44 178 q 0 263 0 340 l 0 360 q 0 493 107 603 q 215 700 340 700 z"},"N":{"x_min":0,"x_max":863,"ha":863,"o":"m 139 700 q 654 211 678 190 l 678 698 q 679 700 681 700 l 812 700 q 814 700 814 698 l 814 2 q 814 0 812 0 l 678 0 l 138 511 l 138 2 q 138 0 135 0 l 2 0 q 0 0 0 2 l 0 698 q 0 700 2 700 z"},"+":{"x_min":0,"x_max":495,"ha":495,"o":"m 213 316 l 42 316 l 42 384 l 213 384 l 213 564 l 214 565 l 282 565 l 282 384 l 452 384 l 453 384 l 453 316 l 282 316 l 282 135 l 213 135 z"},"G":{"x_min":0,"x_max":858,"ha":858,"o":"m 812 700 q 814 700 814 698 l 814 565 q 814 562 812 562 l 343 562 q 241 562 169 464 q 138 409 138 357 l 138 343 q 138 250 222 180 q 279 138 345 138 l 678 138 l 678 341 q 679 344 681 344 l 812 344 q 814 343 814 341 l 814 2 q 814 0 812 0 l 338 0 q 219 0 112 93 q 54 151 35 195 q 0 271 0 340 l 0 360 q 0 493 107 603 q 215 700 340 700 z"},"q":{"x_min":0,"x_max":963,"ha":963,"o":"m 572 138 l 571 299 l 778 298 l 778 350 q 778 470 664 540 q 616 562 570 562 l 343 562 q 241 562 169 464 q 138 410 138 357 l 138 343 q 138 250 222 180 q 279 138 345 138 z m 576 700 q 686 700 789 620 q 848 566 860 538 q 915 451 915 367 l 915 333 q 915 220 821 109 q 708 0 576 0 l 336 0 q 226 0 118 86 q 64 140 44 178 q 0 263 0 340 l 0 360 q 0 493 107 603 q 215 700 340 700 z"},"d":{"x_min":0,"x_max":863,"ha":863,"o":"m 476 700 q 609 700 723 588 q 814 479 814 364 l 814 333 q 814 228 730 121 q 682 70 646 49 q 557 0 476 0 l 2 0 q 0 0 0 2 l 0 576 q 0 578 2 578 l 135 578 q 138 578 138 576 l 138 138 l 473 138 q 572 138 643 232 q 678 289 678 351 q 678 462 576 532 q 523 562 473 562 l 2 562 q 0 562 0 565 l 0 698 q 0 700 2 700 z"},"1":{"x_min":0,"x_max":495,"ha":495,"o":"m 114 0 l 114 24 l 161 24 q 211 24 211 139 l 211 527 q 211 590 154 590 l 106 590 l 106 614 q 249 645 266 700 l 291 700 l 291 139 q 291 24 341 24 l 388 24 l 388 0 z"},"5":{"x_min":0,"x_max":495,"ha":495,"o":"m 112 416 l 182 700 l 375 700 q 426 700 430 726 l 455 726 l 424 642 l 214 642 l 164 439 q 274 439 353 378 q 432 317 432 231 q 432 117 362 53 q 292 -11 204 -11 q 129 -11 83 8 q 38 26 38 48 l 38 100 l 60 100 q 60 57 102 34 q 144 11 208 11 q 282 11 314 68 q 347 125 347 237 q 347 315 293 367 q 239 418 154 418 q 134 418 112 416 z"}}}
